<svg width="210" height="210" viewBox="0 0 210 210" fill="none" xmlns="http://www.w3.org/2000/svg">
<g filter="url(#filter0_d_1_77)">
<rect x="55" y="31" width="100" height="100" rx="15" fill="#0F0F0F" shape-rendering="crispEdges"/>
<rect x="54.5" y="30.5" width="101" height="101" rx="15.5" stroke="#414141" shape-rendering="crispEdges"/>
<rect x="59" y="48.8667" width="90.6667" height="60.8" fill="white"/>
<path fill-rule="evenodd" clip-rule="evenodd" d="M58.2983 49.3334C58.269 49.8931 58.274 108.744 58.3036 112.451L58.311 113.377H105.016H151.721V81.0001V48.623H105.028H58.3354L58.2983 49.3334ZM151.523 50.0223C151.502 50.1289 151.485 50.0417 151.485 49.8286C151.485 49.6155 151.502 49.5282 151.523 49.6348C151.543 49.7414 151.543 49.9157 151.523 50.0223ZM126.789 52.574C126.789 52.6158 126.716 52.6689 126.628 52.692C126.436 52.7419 126.336 53.1494 126.486 53.2729C126.544 53.3207 126.806 53.4335 127.069 53.5235C127.768 53.7627 127.944 53.8704 128.64 54.4834C129.116 54.9022 129.306 55.1368 129.416 55.4406C129.646 56.0775 129.922 56.2504 130.823 56.3231C131.241 56.3569 131.653 56.4215 131.738 56.4668C132.02 56.6168 132.086 56.8555 131.942 57.1994C131.869 57.3721 131.81 57.5477 131.81 57.5898C131.81 57.6318 131.995 57.7534 132.221 57.8598C132.549 58.014 132.638 58.1025 132.66 58.2942C132.678 58.4492 132.763 58.5688 132.898 58.6302C133.073 58.7095 133.109 58.7873 133.109 59.0952C133.109 59.3732 133.161 59.5176 133.321 59.6767C133.855 60.2079 133.677 60.7752 132.759 61.4613C132.404 61.7269 131.964 62.1085 131.781 62.3095C131.458 62.665 131.451 62.6867 131.517 63.1189C131.657 64.0402 131.55 65.4822 131.199 67.3948C130.927 68.8776 131.335 70.5018 132.621 73.0561C133.393 74.5893 133.801 75.8967 133.863 77.0391C133.899 77.705 133.875 77.856 133.592 78.7136C133.421 79.232 133.282 79.7674 133.282 79.9035C133.282 80.0395 133.377 80.526 133.493 80.9845C133.609 81.443 133.801 82.3606 133.92 83.0237C134.039 83.6867 134.213 84.5586 134.307 84.9611C134.75 86.8516 134.751 87.6471 134.315 90.7735C134.176 91.768 134.024 93.0468 133.976 93.6151C133.876 94.8202 133.861 97.3597 133.954 97.5012C133.989 97.5548 134.31 97.6271 134.667 97.662C135.024 97.6968 135.42 97.7782 135.547 97.8429C135.766 97.9545 137.381 98.2253 138.691 98.3703C139.184 98.4248 139.302 98.4673 139.327 98.5991C139.37 98.8206 139.199 98.908 138.719 98.9095C138.218 98.9111 138.099 99.0495 138.541 99.1187C139.226 99.2261 140.445 99.34 140.916 99.3407C141.187 99.341 141.435 99.3825 141.466 99.4328C141.497 99.4831 141.616 99.5595 141.731 99.6029C141.957 99.6883 142.003 99.8743 141.831 100.005C141.601 100.18 140.711 100.275 139.255 100.281C136.911 100.29 132.576 100.114 132.34 100C132.226 99.9456 132.073 99.7461 131.998 99.5566C131.826 99.1177 131.677 99.0051 131.247 98.9911C130.609 98.9702 130.487 98.898 130.379 98.4771C130.325 98.2652 130.228 97.9951 130.163 97.877C130.099 97.7588 129.999 97.2747 129.941 96.8011C129.882 96.3275 129.771 95.5116 129.694 94.9881C129.4 92.9926 129.367 91.3736 129.565 88.6667C129.671 87.2255 129.599 85.7361 129.424 85.7361C129.362 85.7361 129.086 86.0558 128.811 86.4465C128.536 86.8373 128.132 87.3894 127.913 87.6736C127.695 87.9577 127.209 88.6165 126.834 89.1374C126.156 90.0801 125.09 91.3781 124.7 91.7364C124.516 91.9052 124.116 92.138 122.547 92.9902C122.285 93.1324 121.929 93.3264 121.755 93.4213C121.581 93.5162 121.397 93.6858 121.346 93.7982C121.294 93.9106 121.193 94.0026 121.121 94.0026C121.05 94.0026 120.934 94.1382 120.864 94.304C120.754 94.5671 120.699 94.6053 120.434 94.6053C120.098 94.6053 119.69 94.76 119.69 94.8875C119.69 94.9328 119.587 94.9503 119.461 94.9264C119.295 94.8948 119.093 94.9729 118.716 95.215C118.126 95.5943 117.031 96.0363 116.374 96.1602C116.128 96.2066 115.595 96.2205 115.19 96.191C114.568 96.1458 114.378 96.1654 113.976 96.3156C112.686 96.7984 110.305 97.2789 108.089 97.5039C106.277 97.6879 101.807 97.7147 100.774 97.5479C100.393 97.4863 98.8739 97.4011 97.3979 97.3586C95.5764 97.3061 94.5473 97.2407 94.1948 97.1549C93.503 96.9867 91.64 96.8173 90.9916 96.8637C90.7059 96.8841 90.0242 97.0018 89.4766 97.1252C87.8407 97.4936 85.7639 97.7756 83.2868 97.9656C82.0012 98.0642 80.5793 98.1988 80.1269 98.2647C78.8907 98.445 75.492 99.056 74.8028 99.222C74.2826 99.3473 73.59 99.3711 69.9115 99.3906C67.476 99.4034 65.49 99.3787 65.3105 99.3333C64.9867 99.2513 64.8904 99.127 64.8904 98.7907C64.8904 98.3407 65.737 97.8764 67.9807 97.0957C70.3048 96.2871 70.6359 96.0838 71.4345 94.975C72.117 94.0275 73.4776 93.1609 74.1433 93.2497C74.3187 93.2732 74.6557 93.4084 74.8922 93.5503C75.1288 93.6922 75.517 93.8788 75.7551 93.9649C75.9932 94.0511 76.2659 94.1695 76.3611 94.2279C76.5071 94.3176 76.6959 94.2813 77.5625 93.997C78.128 93.8114 78.9339 93.6004 79.3533 93.528C80.3106 93.3628 81.2167 93.0939 84.1439 92.1059C87.0081 91.1393 87.0788 91.1297 90.4289 91.2587C93.1734 91.3643 94.9154 91.3226 96.3969 91.1158C97.4071 90.9747 97.8756 90.8729 100.991 90.1174C101.967 89.8806 103.895 89.4978 105.276 89.2666C108.712 88.6913 108.956 88.6058 109.503 87.788C110.144 86.8301 111.335 85.8846 112.644 85.2955C112.972 85.1478 113.387 84.8958 113.565 84.7357C113.744 84.5755 113.939 84.4452 113.998 84.446C114.058 84.4469 114.281 84.5653 114.494 84.7092C114.759 84.8879 114.938 84.9526 115.057 84.9135C115.153 84.8821 115.446 84.825 115.708 84.7867C115.97 84.7483 116.397 84.6556 116.657 84.5807C116.918 84.5058 117.297 84.4445 117.5 84.4445C118.239 84.4445 119.117 83.9567 120.47 82.7958C120.877 82.446 121.075 82.2146 121.075 82.087C121.075 81.9049 121.138 81.7664 121.611 80.914C122.02 80.1766 122.512 78.3809 122.761 76.7168C122.937 75.5419 122.928 75.1492 122.708 74.422C122.34 73.203 122.524 71.5205 123.212 69.8107C123.8 68.3484 124.087 67.8546 124.673 67.2911C125.156 66.8266 125.231 66.7129 125.231 66.4445C125.231 66.0638 125.002 65.2714 124.868 65.1892C124.814 65.1561 124.299 65.1254 123.723 65.121C122.703 65.1131 122.66 65.1049 122.01 64.7961C120.547 64.1013 119.863 62.9229 119.863 61.0967C119.863 60.1937 119.855 60.1557 119.617 59.8902C119.371 59.6164 119.37 59.6162 119.032 59.7466C118.614 59.9084 118.411 60.2781 118.281 61.1127C118.168 61.8344 118.382 64.0777 118.664 65.1435C118.76 65.5056 118.891 66.0343 118.954 66.3185C119.09 66.9218 119.363 67.649 119.86 68.7295C120.393 69.8903 120.402 69.9077 120.657 70.2891C120.915 70.6745 121.151 71.237 121.141 71.442C121.137 71.513 121.277 72.0094 121.451 72.5449C121.625 73.0804 121.768 73.5745 121.768 73.6428C121.768 73.8684 121.594 73.7718 121.447 73.4639C121.367 73.2973 121.26 73.1745 121.21 73.1911C121.045 73.2456 120.982 74.2735 121.123 74.6103C121.399 75.2665 121.028 75.009 120.599 74.2468C120.293 73.7017 119.82 73.178 119.723 73.2752C119.692 73.3056 119.714 73.6904 119.772 74.13C119.906 75.1548 119.805 75.8051 119.37 76.7082C119.191 77.0796 119.017 77.3835 118.983 77.3835C118.949 77.3835 118.944 77.2479 118.971 77.0821C119.03 76.7197 118.965 76.6976 118.779 77.0175L118.642 77.2543L118.705 76.953C118.785 76.5763 118.761 75.8219 118.665 75.7269C118.409 75.472 118.187 76.0424 118.088 77.2113C118.058 77.5665 118.013 77.9443 117.987 78.0509C117.929 78.2908 117.699 78.308 117.699 78.0724C117.699 77.8706 117.566 77.8427 117.494 78.0293C117.467 78.1004 117.386 78.1585 117.314 78.1585C117.184 78.1585 117.151 78.0689 117.052 77.4564C117.024 77.2834 116.95 77.1223 116.888 77.0984C116.815 77.0706 116.788 76.9594 116.813 76.7888C116.847 76.5592 116.826 76.5224 116.66 76.5224C116.486 76.5224 116.473 76.4915 116.521 76.1995C116.675 75.2547 116.677 75.0834 116.54 74.8187C116.463 74.6712 116.4 74.4603 116.4 74.3501C116.4 74.2398 116.34 74.0635 116.265 73.9582C116.191 73.8528 116.154 73.7296 116.182 73.6843C116.239 73.5926 116.143 72.9737 115.814 71.3128C115.554 69.9952 115.533 69.2287 115.693 66.8351C115.756 65.8879 115.841 64.5898 115.883 63.9505C115.924 63.3111 116.014 62.3053 116.083 61.7153C116.152 61.1252 116.187 60.5886 116.162 60.5227C116.088 60.3311 117.31 59.2541 117.823 59.0583L118.262 58.8909L118.233 58.5223C118.213 58.2747 118.142 58.1028 118.016 57.9982C117.861 57.8691 117.853 57.842 117.973 57.8396C118.053 57.838 118.18 57.8129 118.257 57.7837C118.359 57.7444 118.435 57.8226 118.545 58.0841C118.81 58.711 119.127 58.5065 119.475 57.4853C119.843 56.4021 120.46 55.5011 121.585 54.3999C122.879 53.1334 123.514 52.8424 124.983 52.8424C125.462 52.8424 125.64 52.8054 125.813 52.6702C126.038 52.4943 126.789 52.4204 126.789 52.574ZM151.523 53.4657C151.502 53.5728 151.484 53.5054 151.483 53.316C151.482 53.1266 151.499 53.0389 151.521 53.1212C151.543 53.2035 151.543 53.3585 151.523 53.4657ZM151.521 63.1917C151.493 63.2603 151.473 63.2399 151.468 63.1396C151.465 63.0488 151.485 62.998 151.514 63.0266C151.543 63.0552 151.546 63.1295 151.521 63.1917ZM151.523 66.5553C151.502 66.6619 151.485 66.5747 151.485 66.3615C151.485 66.1484 151.502 66.0612 151.523 66.1678C151.543 66.2744 151.543 66.4487 151.523 66.5553ZM151.523 69.9996C151.502 70.1063 151.485 70.019 151.485 69.8059C151.485 69.5928 151.502 69.5056 151.523 69.6122C151.543 69.7188 151.543 69.893 151.523 69.9996ZM151.522 81.063C151.5 81.1468 151.48 81.0991 151.478 80.957C151.477 80.815 151.495 80.7464 151.518 80.8047C151.542 80.863 151.544 80.9793 151.522 81.063ZM151.519 83.5188C151.495 83.578 151.475 83.5296 151.475 83.4112C151.475 83.2928 151.495 83.2444 151.519 83.3035C151.543 83.3628 151.543 83.4596 151.519 83.5188ZM151.523 86.5326C151.502 86.6392 151.485 86.552 151.485 86.3389C151.485 86.1257 151.502 86.0385 151.523 86.1451C151.543 86.2517 151.543 86.426 151.523 86.5326ZM151.523 89.2881C151.502 89.3947 151.485 89.3075 151.485 89.0944C151.485 88.8812 151.502 88.794 151.523 88.9006C151.543 89.0072 151.543 89.1815 151.523 89.2881ZM151.523 92.0436C151.502 92.1502 151.485 92.063 151.485 91.8498C151.485 91.6367 151.502 91.5495 151.523 91.6561C151.543 91.7627 151.543 91.937 151.523 92.0436ZM151.519 92.8186C151.495 92.8778 151.475 92.8293 151.475 92.7109C151.475 92.5925 151.495 92.5441 151.519 92.6033C151.543 92.6625 151.543 92.7594 151.519 92.8186ZM151.524 94.927C151.504 95.0579 151.487 94.9713 151.486 94.7345C151.486 94.4977 151.502 94.3906 151.523 94.4965C151.543 94.6024 151.544 94.7962 151.524 94.927ZM151.521 103.577C151.493 103.646 151.473 103.625 151.468 103.525C151.465 103.434 151.485 103.383 151.514 103.412C151.543 103.44 151.546 103.515 151.521 103.577ZM151.523 106.51C151.502 106.616 151.485 106.529 151.485 106.316C151.485 106.103 151.502 106.016 151.523 106.122C151.543 106.229 151.543 106.403 151.523 106.51ZM151.521 108.447C151.5 108.53 151.482 108.462 151.482 108.297C151.482 108.131 151.5 108.063 151.521 108.146C151.543 108.229 151.543 108.365 151.521 108.447Z" fill="#0F0F0F"/>
</g>
<defs>
<filter id="filter0_d_1_77" x="0.5" y="0.5" width="209" height="209" filterUnits="userSpaceOnUse" color-interpolation-filters="sRGB">
<feFlood flood-opacity="0" result="BackgroundImageFix"/>
<feColorMatrix in="SourceAlpha" type="matrix" values="0 0 0 0 0 0 0 0 0 0 0 0 0 0 0 0 0 0 127 0" result="hardAlpha"/>
<feOffset dy="24"/>
<feGaussianBlur stdDeviation="26.75"/>
<feComposite in2="hardAlpha" operator="out"/>
<feColorMatrix type="matrix" values="0 0 0 0 0.691309 0 0 0 0 0.691309 0 0 0 0 0.691309 0 0 0 0.95 0"/>
<feBlend mode="plus-darker" in2="BackgroundImageFix" result="effect1_dropShadow_1_77"/>
<feBlend mode="normal" in="SourceGraphic" in2="effect1_dropShadow_1_77" result="shape"/>
</filter>
</defs>
</svg>
