<svg width="102" height="102" viewBox="0 0 102 102" fill="none" xmlns="http://www.w3.org/2000/svg">
<rect x="0.5" y="0.5" width="101" height="101" rx="15.5" fill="#0F0F0F"/>
<rect x="0.5" y="0.5" width="101" height="101" rx="15.5" stroke="#414141"/>
<rect x="5" y="18.8667" width="90.6667" height="60.8" fill="white"/>
<path fill-rule="evenodd" clip-rule="evenodd" d="M4.29828 19.3334C4.26902 19.8931 4.27395 78.7435 4.30365 82.4515L4.311 83.3771H51.0162H97.7213V51.0001V18.623H51.0284H4.33542L4.29828 19.3334ZM97.5227 20.0223C97.502 20.1289 97.4851 20.0417 97.4851 19.8286C97.4851 19.6155 97.502 19.5282 97.5227 19.6348C97.5433 19.7414 97.5433 19.9157 97.5227 20.0223ZM72.7888 22.574C72.7888 22.6158 72.7164 22.6689 72.628 22.692C72.4359 22.7419 72.3361 23.1494 72.4857 23.2729C72.5437 23.3207 72.8062 23.4335 73.069 23.5235C73.7683 23.7627 73.9444 23.8704 74.6402 24.4834C75.1156 24.9022 75.3056 25.1368 75.4156 25.4406C75.6464 26.0775 75.9222 26.2504 76.8227 26.3231C77.2412 26.3569 77.6531 26.4215 77.738 26.4668C78.02 26.6168 78.0863 26.8555 77.9418 27.1994C77.8692 27.3721 77.8099 27.5477 77.8099 27.5898C77.8099 27.6318 77.995 27.7534 78.2212 27.8598C78.5486 28.014 78.6381 28.1025 78.6602 28.2942C78.6782 28.4492 78.7629 28.5688 78.8983 28.6302C79.0734 28.7095 79.1085 28.7873 79.1085 29.0952C79.1085 29.3732 79.1614 29.5176 79.3214 29.6767C79.8554 30.2079 79.6767 30.7752 78.7589 31.4613C78.4036 31.7269 77.9637 32.1085 77.7813 32.3095C77.4585 32.665 77.4514 32.6867 77.5171 33.1189C77.657 34.0402 77.5496 35.4822 77.1987 37.3948C76.9268 38.8776 77.3349 40.5018 78.6212 43.0561C79.3933 44.5893 79.801 45.8967 79.8631 47.0391C79.8993 47.705 79.8749 47.856 79.5923 48.7136C79.4215 49.232 79.2816 49.7674 79.2816 49.9035C79.2816 50.0395 79.3766 50.526 79.4928 50.9845C79.6089 51.443 79.8011 52.3606 79.9199 53.0237C80.0387 53.6867 80.2131 54.5586 80.3073 54.9611C80.7497 56.8516 80.7507 57.6471 80.3146 60.7735C80.1758 61.768 80.0237 63.0468 79.9764 63.6151C79.8761 64.8202 79.8614 67.3597 79.9539 67.5012C79.9889 67.5548 80.3097 67.6271 80.6668 67.662C81.0239 67.6968 81.4199 67.7782 81.5468 67.8429C81.7657 67.9545 83.3806 68.2253 84.6912 68.3703C85.184 68.4248 85.302 68.4673 85.3274 68.5991C85.3702 68.8206 85.1991 68.908 84.7191 68.9095C84.2176 68.9111 84.0993 69.0495 84.5405 69.1187C85.2261 69.2261 86.4445 69.34 86.9165 69.3407C87.1874 69.341 87.4347 69.3825 87.4659 69.4328C87.4972 69.4831 87.6164 69.5595 87.7307 69.6029C87.9566 69.6883 88.0027 69.8743 87.8306 70.0054C87.6013 70.18 86.7114 70.2751 85.2551 70.2807C82.9112 70.2896 78.5762 70.1137 78.3397 70.0001C78.2263 69.9456 78.0728 69.7461 77.9985 69.5566C77.8265 69.1177 77.6769 69.0051 77.2472 68.9911C76.6091 68.9702 76.4871 68.898 76.3792 68.4771C76.3248 68.2652 76.2278 67.9951 76.1634 67.877C76.0991 67.7588 75.9988 67.2747 75.9405 66.8011C75.8823 66.3275 75.7714 65.5116 75.6941 64.9881C75.3997 62.9926 75.3667 61.3736 75.5654 58.6667C75.6712 57.2255 75.5993 55.7361 75.424 55.7361C75.3621 55.7361 75.0862 56.0558 74.811 56.4465C74.5359 56.8373 74.1319 57.3894 73.9132 57.6736C73.6946 57.9577 73.209 58.6165 72.8342 59.1374C72.156 60.0801 71.0899 61.3781 70.6995 61.7364C70.5157 61.9052 70.116 62.138 68.5468 62.9902C68.2849 63.1324 67.9286 63.3264 67.755 63.4213C67.5813 63.5162 67.3971 63.6858 67.3456 63.7982C67.2941 63.9106 67.1932 64.0026 67.1214 64.0026C67.0496 64.0026 66.9339 64.1382 66.8642 64.304C66.7538 64.5671 66.6991 64.6053 66.4343 64.6053C66.098 64.6053 65.69 64.76 65.69 64.8875C65.69 64.9328 65.5871 64.9503 65.4614 64.9264C65.2949 64.8948 65.093 64.9729 64.7165 65.215C64.1265 65.5943 63.0312 66.0363 62.3741 66.1602C62.1283 66.2066 61.5952 66.2205 61.1897 66.191C60.5679 66.1458 60.3778 66.1654 59.9763 66.3156C58.6859 66.7984 56.305 67.2789 54.0894 67.5039C52.2768 67.6879 47.8066 67.7147 46.7742 67.5479C46.3933 67.4863 44.8739 67.4011 43.3979 67.3586C41.5764 67.3061 40.5473 67.2407 40.1948 67.1549C39.503 66.9867 37.64 66.8173 36.9916 66.8637C36.7059 66.8841 36.0242 67.0018 35.4766 67.1252C33.8407 67.4936 31.7639 67.7756 29.2868 67.9656C28.0012 68.0642 26.5793 68.1988 26.1269 68.2647C24.8907 68.445 21.492 69.056 20.8028 69.222C20.2826 69.3473 19.59 69.3711 15.9115 69.3906C13.476 69.4034 11.49 69.3787 11.3105 69.3333C10.9867 69.2513 10.8904 69.127 10.8904 68.7907C10.8904 68.3407 11.737 67.8764 13.9807 67.0957C16.3048 66.2871 16.6359 66.0838 17.4345 64.975C18.117 64.0275 19.4776 63.1609 20.1433 63.2497C20.3187 63.2732 20.6557 63.4084 20.8922 63.5503C21.1288 63.6922 21.517 63.8788 21.7551 63.9649C21.9932 64.0511 22.2659 64.1695 22.3611 64.2279C22.5071 64.3176 22.6959 64.2813 23.5625 63.997C24.128 63.8114 24.9339 63.6004 25.3533 63.528C26.3106 63.3628 27.2167 63.0939 30.1439 62.1059C33.0081 61.1393 33.0788 61.1297 36.4289 61.2587C39.1734 61.3643 40.9154 61.3226 42.3969 61.1158C43.4071 60.9747 43.8756 60.8729 46.9906 60.1174C47.9667 59.8806 49.8951 59.4978 51.2759 59.2666C54.7121 58.6913 54.9564 58.6058 55.5034 57.788C56.144 56.8301 57.3354 55.8846 58.644 55.2955C58.9721 55.1478 59.3866 54.8958 59.5653 54.7357C59.744 54.5755 59.9388 54.4452 59.9982 54.446C60.0576 54.4469 60.2807 54.5653 60.4942 54.7092C60.7595 54.8879 60.9376 54.9526 61.0569 54.9135C61.153 54.8821 61.4458 54.825 61.7077 54.7867C61.9696 54.7483 62.3969 54.6556 62.6572 54.5807C62.9175 54.5058 63.297 54.4445 63.5003 54.4445C64.2386 54.4445 65.1173 53.9567 66.4699 52.7958C66.8775 52.446 67.0751 52.2146 67.0751 52.087C67.0751 51.9049 67.1384 51.7664 67.6112 50.914C68.02 50.1766 68.512 48.3809 68.7611 46.7168C68.9369 45.5419 68.9279 45.1492 68.7083 44.422C68.3401 43.203 68.5238 41.5205 69.2119 39.8107C69.8004 38.3484 70.0867 37.8546 70.6727 37.2911C71.1556 36.8266 71.2305 36.7129 71.2305 36.4445C71.2305 36.0638 71.0018 35.2714 70.8682 35.1892C70.8143 35.1561 70.2992 35.1254 69.7234 35.121C68.7034 35.1131 68.6596 35.1049 68.0096 34.7961C66.5469 34.1013 65.8631 32.9229 65.8631 31.0967C65.8631 30.1937 65.8554 30.1557 65.6168 29.8902C65.3709 29.6164 65.3699 29.6162 65.0325 29.7466C64.614 29.9084 64.4106 30.2781 64.2807 31.1127C64.1684 31.8344 64.3817 34.0777 64.6641 35.1435C64.76 35.5056 64.8907 36.0343 64.9545 36.3185C65.0899 36.9218 65.3629 37.649 65.8597 38.7295C66.3934 39.8903 66.4023 39.9077 66.6571 40.2891C66.9148 40.6745 67.1506 41.237 67.1406 41.442C67.137 41.513 67.2767 42.0094 67.4509 42.5449C67.6252 43.0804 67.7677 43.5745 67.7677 43.6428C67.7677 43.8684 67.5941 43.7718 67.4465 43.4639C67.3666 43.2973 67.2601 43.1745 67.2098 43.1911C67.0446 43.2456 66.982 44.2735 67.1234 44.6103C67.3991 45.2665 67.0278 45.009 66.5993 44.2468C66.2929 43.7017 65.8203 43.178 65.7226 43.2752C65.692 43.3056 65.7141 43.6904 65.7719 44.13C65.9064 45.1548 65.8049 45.8051 65.3698 46.7082C65.1908 47.0796 65.0167 47.3835 64.983 47.3835C64.9493 47.3835 64.9438 47.2479 64.9709 47.0821C65.03 46.7197 64.9646 46.6976 64.7789 47.0175L64.6415 47.2543L64.7055 46.953C64.7855 46.5763 64.7606 45.8219 64.6651 45.7269C64.4088 45.472 64.1872 46.0424 64.0884 47.2113C64.0585 47.5665 64.0127 47.9443 63.9869 48.0509C63.9286 48.2908 63.6988 48.308 63.6988 48.0724C63.6988 47.8706 63.5664 47.8427 63.4944 48.0293C63.467 48.1004 63.3856 48.1585 63.3136 48.1585C63.1841 48.1585 63.1508 48.0689 63.0522 47.4564C63.0244 47.2834 62.9504 47.1223 62.8878 47.0984C62.815 47.0706 62.7883 46.9594 62.8135 46.7888C62.8473 46.5592 62.8262 46.5224 62.6603 46.5224C62.4863 46.5224 62.4729 46.4915 62.5207 46.1995C62.675 45.2547 62.6774 45.0834 62.5397 44.8187C62.463 44.6712 62.4003 44.4603 62.4003 44.3501C62.4003 44.2398 62.3396 44.0635 62.2654 43.9582C62.1912 43.8528 62.1535 43.7296 62.1817 43.6843C62.2386 43.5926 62.1428 42.9737 61.8144 41.3128C61.5539 39.9952 61.5331 39.2287 61.6926 36.8351C61.7558 35.8879 61.8414 34.5898 61.8827 33.9505C61.924 33.3111 62.0142 32.3053 62.0829 31.7153C62.1516 31.1252 62.187 30.5886 62.1617 30.5227C62.0877 30.3311 63.3095 29.2541 63.8228 29.0583L64.2616 28.8909L64.2325 28.5223C64.213 28.2747 64.1421 28.1028 64.0161 27.9982C63.8608 27.8691 63.8535 27.842 63.9731 27.8396C64.0526 27.838 64.1801 27.8129 64.2566 27.7837C64.3595 27.7444 64.4345 27.8226 64.5451 28.0841C64.8098 28.711 65.1273 28.5065 65.4748 27.4853C65.8435 26.4021 66.4596 25.5011 67.5846 24.3999C68.8787 23.1334 69.5136 22.8424 70.983 22.8424C71.4617 22.8424 71.6401 22.8054 71.8129 22.6702C72.0376 22.4943 72.7888 22.4204 72.7888 22.574ZM97.5228 23.4657C97.5021 23.5728 97.4844 23.5054 97.4834 23.316C97.4825 23.1266 97.4994 23.0389 97.5211 23.1212C97.5427 23.2035 97.5435 23.3585 97.5228 23.4657ZM97.5207 33.1917C97.4931 33.2603 97.4726 33.2399 97.4684 33.1396C97.4647 33.0488 97.4851 32.998 97.5139 33.0266C97.5426 33.0552 97.5457 33.1295 97.5207 33.1917ZM97.5227 36.5553C97.502 36.6619 97.4851 36.5747 97.4851 36.3615C97.4851 36.1484 97.502 36.0612 97.5227 36.1678C97.5433 36.2744 97.5433 36.4487 97.5227 36.5553ZM97.5227 39.9996C97.502 40.1063 97.4851 40.019 97.4851 39.8059C97.4851 39.5928 97.502 39.5056 97.5227 39.6122C97.5433 39.7188 97.5433 39.893 97.5227 39.9996ZM97.5216 51.063C97.4996 51.1468 97.4802 51.0991 97.4785 50.957C97.4767 50.815 97.4947 50.7464 97.5184 50.8047C97.5421 50.863 97.5436 50.9793 97.5216 51.063ZM97.5189 53.5188C97.4949 53.578 97.4753 53.5296 97.4753 53.4112C97.4753 53.2928 97.4949 53.2444 97.5189 53.3035C97.543 53.3628 97.543 53.4596 97.5189 53.5188ZM97.5227 56.5326C97.502 56.6392 97.4851 56.552 97.4851 56.3389C97.4851 56.1257 97.502 56.0385 97.5227 56.1451C97.5433 56.2517 97.5433 56.426 97.5227 56.5326ZM97.5227 59.2881C97.502 59.3947 97.4851 59.3075 97.4851 59.0944C97.4851 58.8812 97.502 58.794 97.5227 58.9006C97.5433 59.0072 97.5433 59.1815 97.5227 59.2881ZM97.5227 62.0436C97.502 62.1502 97.4851 62.063 97.4851 61.8498C97.4851 61.6367 97.502 61.5495 97.5227 61.6561C97.5433 61.7627 97.5433 61.937 97.5227 62.0436ZM97.5189 62.8186C97.4949 62.8778 97.4753 62.8293 97.4753 62.7109C97.4753 62.5925 97.4949 62.5441 97.5189 62.6033C97.543 62.6625 97.543 62.7594 97.5189 62.8186ZM97.5238 64.927C97.5038 65.0579 97.4871 64.9713 97.4864 64.7345C97.4858 64.4977 97.502 64.3906 97.5225 64.4965C97.5431 64.6024 97.5436 64.7962 97.5238 64.927ZM97.5207 73.5769C97.4931 73.6455 97.4726 73.6251 97.4684 73.5248C97.4647 73.434 97.4851 73.3832 97.5139 73.4118C97.5426 73.4404 97.5457 73.5147 97.5207 73.5769ZM97.5227 76.5099C97.502 76.6165 97.4851 76.5293 97.4851 76.3162C97.4851 76.1031 97.502 76.0159 97.5227 76.1224C97.5433 76.229 97.5433 76.4034 97.5227 76.5099ZM97.5212 78.4474C97.4995 78.5302 97.4817 78.4625 97.4817 78.2967C97.4817 78.1309 97.4995 78.0632 97.5212 78.146C97.5431 78.2288 97.5431 78.3646 97.5212 78.4474Z" fill="#0F0F0F"/>
</svg>
