<svg width="100" height="100" viewBox="0 0 100 100" fill="none" xmlns="http://www.w3.org/2000/svg">
<rect width="100" height="100" rx="15" fill="#0F0F0F"/>
<rect x="4" y="17.8667" width="90.6667" height="60.8" fill="white"/>
<path fill-rule="evenodd" clip-rule="evenodd" d="M3.29828 18.3334C3.26902 18.8931 3.27395 77.7435 3.30365 81.4515L3.311 82.3771H50.0162H96.7213V50.0001V17.623H50.0284H3.33542L3.29828 18.3334ZM96.5227 19.0223C96.502 19.1289 96.4851 19.0417 96.4851 18.8286C96.4851 18.6155 96.502 18.5282 96.5227 18.6348C96.5433 18.7414 96.5433 18.9157 96.5227 19.0223ZM71.7888 21.574C71.7888 21.6158 71.7164 21.6689 71.628 21.692C71.4359 21.7419 71.3361 22.1494 71.4857 22.2729C71.5437 22.3207 71.8062 22.4335 72.069 22.5235C72.7683 22.7627 72.9444 22.8704 73.6402 23.4834C74.1156 23.9022 74.3056 24.1368 74.4156 24.4406C74.6464 25.0775 74.9222 25.2504 75.8227 25.3231C76.2412 25.3569 76.6531 25.4215 76.738 25.4668C77.02 25.6168 77.0863 25.8555 76.9418 26.1994C76.8692 26.3721 76.8099 26.5477 76.8099 26.5898C76.8099 26.6318 76.995 26.7534 77.2212 26.8598C77.5486 27.014 77.6381 27.1025 77.6602 27.2942C77.6782 27.4492 77.7629 27.5688 77.8983 27.6302C78.0734 27.7095 78.1085 27.7873 78.1085 28.0952C78.1085 28.3732 78.1614 28.5176 78.3214 28.6767C78.8554 29.2079 78.6767 29.7752 77.7589 30.4613C77.4036 30.7269 76.9637 31.1085 76.7813 31.3095C76.4585 31.665 76.4514 31.6867 76.5171 32.1189C76.657 33.0402 76.5496 34.4822 76.1987 36.3948C75.9268 37.8776 76.3349 39.5018 77.6212 42.0561C78.3933 43.5893 78.801 44.8967 78.8631 46.0391C78.8993 46.705 78.8749 46.856 78.5923 47.7136C78.4215 48.232 78.2816 48.7674 78.2816 48.9035C78.2816 49.0395 78.3766 49.526 78.4928 49.9845C78.6089 50.443 78.8011 51.3606 78.9199 52.0237C79.0387 52.6867 79.2131 53.5586 79.3073 53.9611C79.7497 55.8516 79.7507 56.6471 79.3146 59.7735C79.1758 60.768 79.0237 62.0468 78.9764 62.6151C78.8761 63.8202 78.8614 66.3597 78.9539 66.5012C78.9889 66.5548 79.3097 66.6271 79.6668 66.662C80.0239 66.6968 80.4199 66.7782 80.5468 66.8429C80.7657 66.9545 82.3806 67.2253 83.6912 67.3703C84.184 67.4248 84.302 67.4673 84.3274 67.5991C84.3702 67.8206 84.1991 67.908 83.7191 67.9095C83.2176 67.9111 83.0993 68.0495 83.5405 68.1187C84.2261 68.2261 85.4445 68.34 85.9165 68.3407C86.1874 68.341 86.4347 68.3825 86.4659 68.4328C86.4972 68.4831 86.6164 68.5595 86.7307 68.6029C86.9566 68.6883 87.0027 68.8743 86.8306 69.0054C86.6013 69.18 85.7114 69.2751 84.2551 69.2807C81.9112 69.2896 77.5762 69.1137 77.3397 69.0001C77.2263 68.9456 77.0728 68.7461 76.9985 68.5566C76.8265 68.1177 76.6769 68.0051 76.2472 67.9911C75.6091 67.9702 75.4871 67.898 75.3792 67.4771C75.3248 67.2652 75.2278 66.9951 75.1634 66.877C75.0991 66.7588 74.9988 66.2747 74.9405 65.8011C74.8823 65.3275 74.7714 64.5116 74.6941 63.9881C74.3997 61.9926 74.3667 60.3736 74.5654 57.6667C74.6712 56.2255 74.5993 54.7361 74.424 54.7361C74.3621 54.7361 74.0862 55.0558 73.811 55.4465C73.5359 55.8373 73.1319 56.3894 72.9132 56.6736C72.6946 56.9577 72.209 57.6165 71.8342 58.1374C71.156 59.0801 70.0899 60.3781 69.6995 60.7364C69.5157 60.9052 69.116 61.138 67.5468 61.9902C67.2849 62.1324 66.9286 62.3264 66.755 62.4213C66.5813 62.5162 66.3971 62.6858 66.3456 62.7982C66.2941 62.9106 66.1932 63.0026 66.1214 63.0026C66.0496 63.0026 65.9339 63.1382 65.8642 63.304C65.7538 63.5671 65.6991 63.6053 65.4343 63.6053C65.098 63.6053 64.69 63.76 64.69 63.8875C64.69 63.9328 64.5871 63.9503 64.4614 63.9264C64.2949 63.8948 64.093 63.9729 63.7165 64.215C63.1265 64.5943 62.0312 65.0363 61.3741 65.1602C61.1283 65.2066 60.5952 65.2205 60.1897 65.191C59.5679 65.1458 59.3778 65.1654 58.9763 65.3156C57.6859 65.7984 55.305 66.2789 53.0894 66.5039C51.2768 66.6879 46.8066 66.7147 45.7742 66.5479C45.3933 66.4863 43.8739 66.4011 42.3979 66.3586C40.5764 66.3061 39.5473 66.2407 39.1948 66.1549C38.503 65.9867 36.64 65.8173 35.9916 65.8637C35.7059 65.8841 35.0242 66.0018 34.4766 66.1252C32.8407 66.4936 30.7639 66.7756 28.2868 66.9656C27.0012 67.0642 25.5793 67.1988 25.1269 67.2647C23.8907 67.445 20.492 68.056 19.8028 68.222C19.2826 68.3473 18.59 68.3711 14.9115 68.3906C12.476 68.4034 10.49 68.3787 10.3105 68.3333C9.98668 68.2513 9.89041 68.127 9.89041 67.7907C9.89041 67.3407 10.737 66.8764 12.9807 66.0957C15.3048 65.2871 15.6359 65.0838 16.4345 63.975C17.117 63.0275 18.4776 62.1609 19.1433 62.2497C19.3187 62.2732 19.6557 62.4084 19.8922 62.5503C20.1288 62.6922 20.517 62.8788 20.7551 62.9649C20.9932 63.0511 21.2659 63.1695 21.3611 63.2279C21.5071 63.3176 21.6959 63.2813 22.5625 62.997C23.128 62.8114 23.9339 62.6004 24.3533 62.528C25.3106 62.3628 26.2167 62.0939 29.1439 61.1059C32.0081 60.1393 32.0788 60.1297 35.4289 60.2587C38.1734 60.3643 39.9154 60.3226 41.3969 60.1158C42.4071 59.9747 42.8756 59.8729 45.9906 59.1174C46.9667 58.8806 48.8951 58.4978 50.2759 58.2666C53.7121 57.6913 53.9564 57.6058 54.5034 56.788C55.144 55.8301 56.3354 54.8846 57.644 54.2955C57.9721 54.1478 58.3866 53.8958 58.5653 53.7357C58.744 53.5755 58.9388 53.4452 58.9982 53.446C59.0576 53.4469 59.2807 53.5653 59.4942 53.7092C59.7595 53.8879 59.9376 53.9526 60.0569 53.9135C60.153 53.8821 60.4458 53.825 60.7077 53.7867C60.9696 53.7483 61.3969 53.6556 61.6572 53.5807C61.9175 53.5058 62.297 53.4445 62.5003 53.4445C63.2386 53.4445 64.1173 52.9567 65.4699 51.7958C65.8775 51.446 66.0751 51.2146 66.0751 51.087C66.0751 50.9049 66.1384 50.7664 66.6112 49.914C67.02 49.1766 67.512 47.3809 67.7611 45.7168C67.9369 44.5419 67.9279 44.1492 67.7083 43.422C67.3401 42.203 67.5238 40.5205 68.2119 38.8107C68.8004 37.3484 69.0867 36.8546 69.6727 36.2911C70.1556 35.8266 70.2305 35.7129 70.2305 35.4445C70.2305 35.0638 70.0018 34.2714 69.8682 34.1892C69.8143 34.1561 69.2992 34.1254 68.7234 34.121C67.7034 34.1131 67.6596 34.1049 67.0096 33.7961C65.5469 33.1013 64.8631 31.9229 64.8631 30.0967C64.8631 29.1937 64.8554 29.1557 64.6168 28.8902C64.3709 28.6164 64.3699 28.6162 64.0325 28.7466C63.614 28.9084 63.4106 29.2781 63.2807 30.1127C63.1684 30.8344 63.3817 33.0777 63.6641 34.1435C63.76 34.5056 63.8907 35.0343 63.9545 35.3185C64.0899 35.9218 64.3629 36.649 64.8597 37.7295C65.3934 38.8903 65.4023 38.9077 65.6571 39.2891C65.9148 39.6745 66.1506 40.237 66.1406 40.442C66.137 40.513 66.2767 41.0094 66.4509 41.5449C66.6252 42.0804 66.7677 42.5745 66.7677 42.6428C66.7677 42.8684 66.5941 42.7718 66.4465 42.4639C66.3666 42.2973 66.2601 42.1745 66.2098 42.1911C66.0446 42.2456 65.982 43.2735 66.1234 43.6103C66.3991 44.2665 66.0278 44.009 65.5993 43.2468C65.2929 42.7017 64.8203 42.178 64.7226 42.2752C64.692 42.3056 64.7141 42.6904 64.7719 43.13C64.9064 44.1548 64.8049 44.8051 64.3698 45.7082C64.1908 46.0796 64.0167 46.3835 63.983 46.3835C63.9493 46.3835 63.9438 46.2479 63.9709 46.0821C64.03 45.7197 63.9646 45.6976 63.7789 46.0175L63.6415 46.2543L63.7055 45.953C63.7855 45.5763 63.7606 44.8219 63.6651 44.7269C63.4088 44.472 63.1872 45.0424 63.0884 46.2113C63.0585 46.5665 63.0127 46.9443 62.9869 47.0509C62.9286 47.2908 62.6988 47.308 62.6988 47.0724C62.6988 46.8706 62.5664 46.8427 62.4944 47.0293C62.467 47.1004 62.3856 47.1585 62.3136 47.1585C62.1841 47.1585 62.1508 47.0689 62.0522 46.4564C62.0244 46.2834 61.9504 46.1223 61.8878 46.0984C61.815 46.0706 61.7883 45.9594 61.8135 45.7888C61.8473 45.5592 61.8262 45.5224 61.6603 45.5224C61.4863 45.5224 61.4729 45.4915 61.5207 45.1995C61.675 44.2547 61.6774 44.0834 61.5397 43.8187C61.463 43.6712 61.4003 43.4603 61.4003 43.3501C61.4003 43.2398 61.3396 43.0635 61.2654 42.9582C61.1912 42.8528 61.1535 42.7296 61.1817 42.6843C61.2386 42.5926 61.1428 41.9737 60.8144 40.3128C60.5539 38.9952 60.5331 38.2287 60.6926 35.8351C60.7558 34.8879 60.8414 33.5898 60.8827 32.9505C60.924 32.3111 61.0142 31.3053 61.0829 30.7153C61.1516 30.1252 61.187 29.5886 61.1617 29.5227C61.0877 29.3311 62.3095 28.2541 62.8228 28.0583L63.2616 27.8909L63.2325 27.5223C63.213 27.2747 63.1421 27.1028 63.0161 26.9982C62.8608 26.8691 62.8535 26.842 62.9731 26.8396C63.0526 26.838 63.1801 26.8129 63.2566 26.7837C63.3595 26.7444 63.4345 26.8226 63.5451 27.0841C63.8098 27.711 64.1273 27.5065 64.4748 26.4853C64.8435 25.4021 65.4596 24.5011 66.5846 23.3999C67.8787 22.1334 68.5136 21.8424 69.983 21.8424C70.4617 21.8424 70.6401 21.8054 70.8129 21.6702C71.0376 21.4943 71.7888 21.4204 71.7888 21.574ZM96.5228 22.4657C96.5021 22.5728 96.4844 22.5054 96.4834 22.316C96.4825 22.1266 96.4994 22.0389 96.5211 22.1212C96.5427 22.2035 96.5435 22.3585 96.5228 22.4657ZM96.5207 32.1917C96.4931 32.2603 96.4726 32.2399 96.4684 32.1396C96.4647 32.0488 96.4851 31.998 96.5139 32.0266C96.5426 32.0552 96.5457 32.1295 96.5207 32.1917ZM96.5227 35.5553C96.502 35.6619 96.4851 35.5747 96.4851 35.3615C96.4851 35.1484 96.502 35.0612 96.5227 35.1678C96.5433 35.2744 96.5433 35.4487 96.5227 35.5553ZM96.5227 38.9996C96.502 39.1063 96.4851 39.019 96.4851 38.8059C96.4851 38.5928 96.502 38.5056 96.5227 38.6122C96.5433 38.7188 96.5433 38.893 96.5227 38.9996ZM96.5216 50.063C96.4996 50.1468 96.4802 50.0991 96.4785 49.957C96.4767 49.815 96.4947 49.7464 96.5184 49.8047C96.5421 49.863 96.5436 49.9793 96.5216 50.063ZM96.5189 52.5188C96.4949 52.578 96.4753 52.5296 96.4753 52.4112C96.4753 52.2928 96.4949 52.2444 96.5189 52.3035C96.543 52.3628 96.543 52.4596 96.5189 52.5188ZM96.5227 55.5326C96.502 55.6392 96.4851 55.552 96.4851 55.3389C96.4851 55.1257 96.502 55.0385 96.5227 55.1451C96.5433 55.2517 96.5433 55.426 96.5227 55.5326ZM96.5227 58.2881C96.502 58.3947 96.4851 58.3075 96.4851 58.0944C96.4851 57.8812 96.502 57.794 96.5227 57.9006C96.5433 58.0072 96.5433 58.1815 96.5227 58.2881ZM96.5227 61.0436C96.502 61.1502 96.4851 61.063 96.4851 60.8498C96.4851 60.6367 96.502 60.5495 96.5227 60.6561C96.5433 60.7627 96.5433 60.937 96.5227 61.0436ZM96.5189 61.8186C96.4949 61.8778 96.4753 61.8293 96.4753 61.7109C96.4753 61.5925 96.4949 61.5441 96.5189 61.6033C96.543 61.6625 96.543 61.7594 96.5189 61.8186ZM96.5238 63.927C96.5038 64.0579 96.4871 63.9713 96.4864 63.7345C96.4858 63.4977 96.502 63.3906 96.5225 63.4965C96.5431 63.6024 96.5436 63.7962 96.5238 63.927ZM96.5207 72.5769C96.4931 72.6455 96.4726 72.6251 96.4684 72.5248C96.4647 72.434 96.4851 72.3832 96.5139 72.4118C96.5426 72.4404 96.5457 72.5147 96.5207 72.5769ZM96.5227 75.5099C96.502 75.6165 96.4851 75.5293 96.4851 75.3162C96.4851 75.1031 96.502 75.0159 96.5227 75.1224C96.5433 75.229 96.5433 75.4034 96.5227 75.5099ZM96.5212 77.4474C96.4995 77.5302 96.4817 77.4625 96.4817 77.2967C96.4817 77.1309 96.4995 77.0632 96.5212 77.146C96.5431 77.2288 96.5431 77.3646 96.5212 77.4474Z" fill="#0F0F0F"/>
</svg>
