<!-- Big logo 1:1 -->
<svg xmlns="http://www.w3.org/2000/svg" xmlns:xlink="http://www.w3.org/1999/xlink" width="1080" zoomAndPan="magnify" viewBox="0 0 810 809.999993" height="1080" preserveAspectRatio="xMidYMid meet" version="1.0"><defs><g/><clipPath id="a1f2fac45d"><path d="M 129 282.488281 L 260 282.488281 L 260 494.738281 L 129 494.738281 Z M 129 282.488281 " clip-rule="nonzero"/></clipPath><clipPath id="e0d9e92f33"><path d="M 61 233 L 340 233 L 340 543 L 61 543 Z M 61 233 " clip-rule="nonzero"/></clipPath><clipPath id="5f0c631ff4"><path d="M 140.160156 233.535156 L 373.816406 300.277344 L 294.921875 576.480469 L 61.265625 509.738281 Z M 140.160156 233.535156 " clip-rule="nonzero"/></clipPath><clipPath id="26995a73c4"><path d="M 140.160156 233.535156 L 373.816406 300.277344 L 294.921875 576.480469 L 61.265625 509.738281 Z M 140.160156 233.535156 " clip-rule="nonzero"/></clipPath><clipPath id="925e2a3fcd"><path d="M 140.160156 233.535156 L 373.816406 300.277344 L 294.921875 576.480469 L 61.265625 509.738281 Z M 140.160156 233.535156 " clip-rule="nonzero"/></clipPath><clipPath id="e79a0d3973"><path d="M 129 282.488281 L 222.546875 282.488281 L 222.546875 469.988281 L 129 469.988281 Z M 129 282.488281 " clip-rule="nonzero"/></clipPath></defs><g clip-path="url(#a1f2fac45d)"><path fill="#ffffff" d="M 205.160156 494.519531 C 225.804688 483.808594 226.726562 449.980469 216.96875 446.273438 C 218.71875 452.90625 210.984375 457.957031 205.160156 464.453125 C 213.03125 442.363281 187.773438 420.273438 194.449219 404.953125 C 155.769531 427.335938 156.09375 479.898438 183.414062 494.320312 C 145.949219 487.164062 110.175781 445.863281 141.550781 392.15625 C 160.714844 359.335938 217.964844 322.195312 192.226562 282.382812 C 227.605469 303.132812 248.597656 351.882812 221.683594 416.644531 C 227.605469 414.71875 235.320312 402.625 239.375 385.542969 C 276.578125 419.601562 261.800781 486.09375 205.160156 494.519531 " fill-opacity="1" fill-rule="nonzero"/></g><g clip-path="url(#e0d9e92f33)"><g clip-path="url(#5f0c631ff4)"><g clip-path="url(#26995a73c4)"><g clip-path="url(#925e2a3fcd)"><path fill="#000000" d="M 128.414062 472.40625 L 171.402344 484.6875 C 218.78125 498.21875 268.1875 470.707031 281.746094 423.246094 C 295.304688 375.78125 267.882812 326.324219 220.503906 312.792969 L 125.980469 285.589844 L 140.8125 233.671875 L 235.386719 260.683594 C 311.492188 282.425781 355.535156 361.859375 333.757812 438.101562 C 311.980469 514.34375 232.625 558.53125 156.519531 536.792969 L 61.941406 509.777344 L 122.152344 298.988281 L 173.742188 313.722656 L 128.414062 472.40625 " fill-opacity="1" fill-rule="nonzero"/></g></g></g></g><g clip-path="url(#e79a0d3973)"><path fill="#ffffff" d="M 205.160156 494.519531 C 225.804688 483.808594 226.726562 449.980469 216.96875 446.273438 C 218.71875 452.90625 210.984375 457.957031 205.160156 464.453125 C 213.03125 442.363281 187.773438 420.273438 194.449219 404.953125 C 155.769531 427.335938 156.09375 479.898438 183.414062 494.320312 C 145.949219 487.164062 110.175781 445.863281 141.550781 392.15625 C 160.714844 359.335938 217.964844 322.195312 192.226562 282.382812 C 227.605469 303.132812 248.597656 351.882812 221.683594 416.644531 C 227.605469 414.71875 235.320312 402.625 239.375 385.542969 C 276.578125 419.601562 261.800781 486.09375 205.160156 494.519531 " fill-opacity="1" fill-rule="nonzero"/></g><g fill="#000000" fill-opacity="1"><g transform="translate(346.91688, 524.681337)"><g><path d="M 94.34375 -27.890625 L 34.09375 -27.890625 L 22.203125 0 L -0.859375 0 L 53.375 -120.515625 L 75.40625 -120.515625 L 129.8125 0 L 106.390625 0 Z M 86.9375 -45.453125 L 64.21875 -98.125 L 41.65625 -45.453125 Z M 86.9375 -45.453125 "/></g></g></g><g fill="#000000" fill-opacity="1"><g transform="translate(475.821641, 524.681337)"><g><path d="M 38.5625 -101.75 L 38.5625 -65.078125 L 96.75 -65.078125 L 96.75 -46.140625 L 38.5625 -46.140625 L 38.5625 0 L 16.1875 0 L 16.1875 -120.515625 L 104.15625 -120.515625 L 104.15625 -101.75 Z M 38.5625 -101.75 "/></g></g></g><g fill="#000000" fill-opacity="1"><g transform="translate(585.450892, 524.681337)"><g><path d="M 16.1875 -120.515625 L 38.5625 -120.515625 L 38.5625 0 L 16.1875 0 Z M 16.1875 -120.515625 "/></g></g></g><g fill="#000000" fill-opacity="1"><g transform="translate(640.351528, 524.681337)"><g><path d="M 40.625 -101.578125 L 0.6875 -101.578125 L 0.6875 -120.515625 L 102.953125 -120.515625 L 102.953125 -101.578125 L 63.015625 -101.578125 L 63.015625 0 L 40.625 0 Z M 40.625 -101.578125 "/></g></g></g></svg>