<svg xmlns="http://www.w3.org/2000/svg" xmlns:xlink="http://www.w3.org/1999/xlink" zoomAndPan="magnify" preserveAspectRatio="xMidYMid meet" version="1.0" viewBox="61 233 682.3 343.48"><defs><g/><clipPath id="16531f1f18"><path d="M 129 282.488281 L 260 282.488281 L 260 494.738281 L 129 494.738281 Z M 129 282.488281 " clip-rule="nonzero"/></clipPath><clipPath id="d4628c6103"><path d="M 61 233 L 340 233 L 340 543 L 61 543 Z M 61 233 " clip-rule="nonzero"/></clipPath><clipPath id="40ac5ce526"><path d="M 140.160156 233.535156 L 373.816406 300.277344 L 294.921875 576.480469 L 61.265625 509.738281 Z M 140.160156 233.535156 " clip-rule="nonzero"/></clipPath><clipPath id="6a55888ff0"><path d="M 140.160156 233.535156 L 373.816406 300.277344 L 294.921875 576.480469 L 61.265625 509.738281 Z M 140.160156 233.535156 " clip-rule="nonzero"/></clipPath><clipPath id="2e5a2011ee"><path d="M 129 282.488281 L 222.546875 282.488281 L 222.546875 469.988281 L 129 469.988281 Z M 129 282.488281 " clip-rule="nonzero"/></clipPath></defs><g clip-path="url(#16531f1f18)"><path fill="#c8fe11" d="M 205.160156 494.519531 C 225.804688 483.808594 226.726562 449.980469 216.96875 446.273438 C 218.71875 452.90625 210.984375 457.957031 205.160156 464.453125 C 213.03125 442.363281 187.773438 420.273438 194.449219 404.953125 C 155.769531 427.335938 156.09375 479.898438 183.414062 494.320312 C 145.949219 487.160156 110.175781 445.863281 141.550781 392.15625 C 160.714844 359.335938 217.964844 322.195312 192.226562 282.382812 C 227.605469 303.132812 248.597656 351.882812 221.683594 416.644531 C 227.605469 414.71875 235.320312 402.625 239.375 385.542969 C 276.578125 419.601562 261.800781 486.09375 205.160156 494.519531 " fill-opacity="1" fill-rule="nonzero"/></g><g clip-path="url(#d4628c6103)"><g clip-path="url(#40ac5ce526)"><g clip-path="url(#6a55888ff0)"><path fill="#ffffff" d="M 128.511719 472.335938 L 171.5625 484.632812 C 219.007812 498.183594 268.460938 470.703125 282.015625 423.261719 C 295.566406 375.816406 268.085938 326.359375 220.644531 312.808594 L 125.988281 285.570312 L 140.8125 233.671875 L 235.519531 260.722656 C 311.730469 282.492188 355.871094 361.925781 334.101562 438.136719 C 312.332031 514.347656 232.894531 558.488281 156.683594 536.71875 L 61.976562 509.664062 L 122.160156 298.960938 L 173.820312 313.71875 L 128.511719 472.335938 " fill-opacity="1" fill-rule="nonzero"/></g></g></g><g clip-path="url(#2e5a2011ee)"><path fill="#c8fe11" d="M 205.160156 494.519531 C 225.804688 483.808594 226.726562 449.980469 216.96875 446.273438 C 218.71875 452.90625 210.984375 457.957031 205.160156 464.453125 C 213.03125 442.363281 187.773438 420.273438 194.449219 404.953125 C 155.769531 427.335938 156.09375 479.898438 183.414062 494.320312 C 145.949219 487.160156 110.175781 445.863281 141.550781 392.15625 C 160.714844 359.335938 217.964844 322.195312 192.226562 282.382812 C 227.605469 303.132812 248.597656 351.882812 221.683594 416.644531 C 227.605469 414.71875 235.320312 402.625 239.375 385.542969 C 276.578125 419.601562 261.800781 486.09375 205.160156 494.519531 " fill-opacity="1" fill-rule="nonzero"/></g><g fill="#ffffff" fill-opacity="1"><g transform="translate(346.91688, 524.681337)"><g><path d="M 94.34375 -27.890625 L 34.09375 -27.890625 L 22.203125 0 L -0.859375 0 L 53.375 -120.515625 L 75.40625 -120.515625 L 129.8125 0 L 106.390625 0 Z M 86.9375 -45.453125 L 64.21875 -98.125 L 41.65625 -45.453125 Z M 86.9375 -45.453125 "/></g></g></g><g fill="#ffffff" fill-opacity="1"><g transform="translate(475.821641, 524.681337)"><g><path d="M 38.5625 -101.75 L 38.5625 -65.078125 L 96.75 -65.078125 L 96.75 -46.140625 L 38.5625 -46.140625 L 38.5625 0 L 16.1875 0 L 16.1875 -120.515625 L 104.15625 -120.515625 L 104.15625 -101.75 Z M 38.5625 -101.75 "/></g></g></g><g fill="#ffffff" fill-opacity="1"><g transform="translate(585.450892, 524.681337)"><g><path d="M 16.1875 -120.515625 L 38.5625 -120.515625 L 38.5625 0 L 16.1875 0 Z M 16.1875 -120.515625 "/></g></g></g><g fill="#ffffff" fill-opacity="1"><g transform="translate(640.351528, 524.681337)"><g><path d="M 40.625 -101.578125 L 0.6875 -101.578125 L 0.6875 -120.515625 L 102.953125 -120.515625 L 102.953125 -101.578125 L 63.015625 -101.578125 L 63.015625 0 L 40.625 0 Z M 40.625 -101.578125 "/></g></g></g></svg>