<svg xmlns="http://www.w3.org/2000/svg" xmlns:xlink="http://www.w3.org/1999/xlink" zoomAndPan="magnify" preserveAspectRatio="xMidYMid meet" version="1.0" viewBox="228.49 211 352.93 387.46"><defs><clipPath id="36acf91557"><path d="M 305 266.761719 L 453 266.761719 L 453 506.011719 L 305 506.011719 Z M 305 266.761719 " clip-rule="nonzero"/></clipPath><clipPath id="759c42fafd"><path d="M 229 211 L 543 211 L 543 560 L 229 560 Z M 229 211 " clip-rule="nonzero"/></clipPath><clipPath id="597c2e67f9"><path d="M 317.480469 211.523438 L 581.421875 286.914062 L 492.433594 598.457031 L 228.492188 523.0625 Z M 317.480469 211.523438 " clip-rule="nonzero"/></clipPath><clipPath id="a3916cd7a1"><path d="M 317.480469 211.523438 L 581.421875 286.914062 L 492.433594 598.457031 L 228.492188 523.0625 Z M 317.480469 211.523438 " clip-rule="nonzero"/></clipPath><clipPath id="a1c904441c"><path d="M 317.480469 211.523438 L 581.421875 286.914062 L 492.433594 598.457031 L 228.492188 523.0625 Z M 317.480469 211.523438 " clip-rule="nonzero"/></clipPath><clipPath id="03d6e66413"><path d="M 305 266.761719 L 410.25 266.761719 L 410.25 478.261719 L 305 478.261719 Z M 305 266.761719 " clip-rule="nonzero"/></clipPath></defs><g clip-path="url(#36acf91557)"><path fill="#c8fe11" d="M 390.824219 506.011719 C 414.117188 493.929688 415.160156 455.757812 404.148438 451.570312 C 406.125 459.058594 397.398438 464.757812 390.824219 472.085938 C 399.703125 447.160156 371.207031 422.234375 378.738281 404.945312 C 335.09375 430.203125 335.457031 489.519531 366.285156 505.789062 C 324.011719 497.710938 283.640625 451.109375 319.046875 390.507812 C 340.671875 353.472656 405.273438 311.566406 376.230469 266.640625 C 416.152344 290.054688 439.835938 345.066406 409.46875 418.144531 C 416.152344 415.96875 424.855469 402.320312 429.429688 383.046875 C 471.410156 421.476562 454.738281 496.507812 390.824219 506.011719 " fill-opacity="1" fill-rule="nonzero"/></g><g clip-path="url(#759c42fafd)"><g clip-path="url(#597c2e67f9)"><g clip-path="url(#a3916cd7a1)"><g clip-path="url(#a1c904441c)"><path fill="#000000" d="M 304.316406 480.976562 L 352.878906 494.847656 C 406.398438 510.136719 462.191406 479.125 477.484375 425.589844 C 492.777344 372.054688 461.78125 316.25 408.261719 300.964844 L 301.484375 270.234375 L 318.214844 211.671875 L 425.050781 242.191406 C 511.019531 266.746094 560.804688 356.375 536.242188 442.371094 C 511.675781 528.367188 422.0625 578.179688 336.09375 553.621094 L 229.253906 523.105469 L 297.167969 285.347656 L 355.441406 301.996094 L 304.316406 480.976562 " fill-opacity="1" fill-rule="nonzero"/></g></g></g></g><g clip-path="url(#03d6e66413)"><path fill="#c8fe11" d="M 390.824219 506.011719 C 414.117188 493.929688 415.160156 455.757812 404.148438 451.570312 C 406.125 459.058594 397.398438 464.757812 390.824219 472.085938 C 399.703125 447.160156 371.207031 422.234375 378.738281 404.945312 C 335.09375 430.203125 335.457031 489.519531 366.285156 505.789062 C 324.011719 497.710938 283.640625 451.109375 319.046875 390.507812 C 340.671875 353.472656 405.273438 311.566406 376.230469 266.640625 C 416.152344 290.054688 439.835938 345.066406 409.46875 418.144531 C 416.152344 415.96875 424.855469 402.320312 429.429688 383.046875 C 471.410156 421.476562 454.738281 496.507812 390.824219 506.011719 " fill-opacity="1" fill-rule="nonzero"/></g></svg>